<?xml version="1.0" standalone="no"?>
<!DOCTYPE svg PUBLIC "-//W3C//DTD SVG 20010904//EN"
 "http://www.w3.org/TR/2001/REC-SVG-20010904/DTD/svg10.dtd">
<svg version="1.0" xmlns="http://www.w3.org/2000/svg"
 width="272.000000pt" height="272.000000pt" viewBox="0 0 272.000000 272.000000"
 preserveAspectRatio="xMidYMid meet">

<g transform="translate(0.000000,272.000000) scale(0.100000,-0.100000)"
fill="#000000" stroke="none">
<path d="M1472 2584 c-36 -37 -70 -43 -112 -19 -14 8 -28 14 -32 15 -4 0 -7
-35 -5 -77 l2 -77 -50 -12 c-67 -15 -138 -40 -183 -64 -53 -28 -35 -24 44 8
117 49 167 57 334 57 85 0 148 1 140 2 -91 12 -91 12 -85 47 5 24 2 38 -10 49
-34 34 -65 9 -65 -52 0 -30 -1 -31 -49 -31 -54 0 -50 -6 -67 93 -7 42 -5 43
37 21 42 -21 67 -12 123 44 l23 23 26 -40 c30 -46 58 -56 123 -47 51 7 54 -2
29 -74 -8 -23 -15 -46 -15 -50 0 -4 29 -15 65 -24 131 -33 198 -72 313 -185
61 -60 79 -68 31 -13 -96 106 -229 191 -324 207 -64 10 -71 17 -57 62 7 21 13
49 15 63 2 24 0 25 -58 25 -61 1 -95 10 -95 26 0 14 -42 59 -54 58 -6 0 -26
-16 -44 -35z"/>
<path d="M1638 2403 c7 -3 16 -2 19 1 4 3 -2 6 -13 5 -11 0 -14 -3 -6 -6z"/>
<path d="M1006 2323 c-104 -27 -295 -199 -391 -353 -45 -72 -77 -130 -71 -130
3 0 23 30 45 68 38 64 108 157 175 232 47 52 153 129 221 161 57 27 63 33 21
22z"/>
<path d="M1893 2260 c10 -14 26 -38 37 -55 11 -16 20 -25 20 -19 0 6 -14 29
-31 50 -37 47 -50 58 -26 24z"/>
<path d="M1721 2268 c-1 -12 31 -89 35 -85 3 2 -4 24 -15 48 -11 24 -20 41
-20 37z"/>
<path d="M1602 2240 c0 -14 2 -19 5 -12 2 6 2 18 0 25 -3 6 -5 1 -5 -13z"/>
<path d="M1612 2185 c0 -16 2 -22 5 -12 2 9 2 23 0 30 -3 6 -5 -1 -5 -18z"/>
<path d="M1760 2155 c0 -5 5 -17 10 -25 5 -8 10 -10 10 -5 0 6 -5 17 -10 25
-5 8 -10 11 -10 5z"/>
<path d="M1452 2110 c0 -14 2 -19 5 -12 2 6 2 18 0 25 -3 6 -5 1 -5 -13z"/>
<path d="M1632 2095 c0 -16 2 -22 5 -12 2 9 2 23 0 30 -3 6 -5 -1 -5 -18z"/>
<path d="M2156 2077 c3 -10 9 -15 12 -12 3 3 0 11 -7 18 -10 9 -11 8 -5 -6z"/>
<path d="M1441 2064 c0 -11 3 -14 6 -6 3 7 2 16 -1 19 -3 4 -6 -2 -5 -13z"/>
<path d="M1641 2044 c0 -11 3 -14 6 -6 3 7 2 16 -1 19 -3 4 -6 -2 -5 -13z"/>
<path d="M1075 2037 c-6 -7 -9 -19 -7 -28 1 -8 -8 -31 -21 -50 -21 -31 -22
-35 -6 -35 12 0 20 11 24 33 7 39 20 49 43 32 16 -13 16 -12 1 6 -10 11 -19
27 -20 37 -3 12 -7 13 -14 5z"/>
<path d="M1511 2023 c-1 -13 -11 -25 -28 -32 l-28 -11 28 5 c31 6 32 5 14 -38
-8 -18 -17 -45 -21 -62 -11 -44 8 -18 24 32 7 23 17 40 21 37 5 -3 9 6 9 20 0
15 7 26 18 29 13 4 12 5 -5 6 -12 0 -24 9 -26 19 -4 13 -5 12 -6 -5z"/>
<path d="M1430 1931 c0 -46 2 -82 5 -79 11 10 15 129 6 145 -8 13 -10 -4 -11
-66z"/>
<path d="M2021 1984 c0 -11 3 -14 6 -6 3 7 2 16 -1 19 -3 4 -6 -2 -5 -13z"/>
<path d="M1660 1983 c0 -15 57 -235 70 -269 13 -33 -2 -37 -65 -21 -46 11 -52
16 -73 62 -13 27 -33 81 -43 120 -17 61 -19 64 -13 22 3 -27 14 -68 24 -92 10
-24 16 -46 13 -49 -4 -3 -33 -6 -66 -6 l-60 0 6 35 c3 19 1 37 -4 40 -5 4 -9
-18 -8 -52 0 -32 3 -52 6 -45 6 15 143 17 143 2 0 -5 1 -13 3 -17 1 -5 -33 -8
-76 -9 -59 -1 -82 -5 -97 -19 -19 -17 -20 -17 -30 9 -5 15 -10 33 -10 39 0 7
-4 18 -9 26 -6 9 -10 -6 -13 -47 -2 -46 0 -58 9 -50 8 7 19 5 35 -6 12 -9 41
-16 64 -16 46 0 71 -20 59 -47 -10 -23 -6 -64 7 -80 18 -22 47 -15 54 12 11
43 28 48 64 19 25 -22 30 -32 25 -53 -5 -20 -4 -23 5 -14 7 6 15 41 18 78 4
62 6 66 26 61 12 -3 26 -6 33 -6 6 0 14 -8 16 -17 3 -10 5 8 6 40 0 31 6 57
11 57 6 0 10 -5 10 -12 0 -6 2 -9 5 -6 3 2 -6 27 -19 54 l-24 49 5 -55 c7 -78
-9 -55 -46 65 -40 129 -39 146 3 60 40 -81 48 -82 11 -1 -14 30 -25 57 -25 59
0 3 -11 25 -25 48 -14 24 -25 39 -25 32z"/>
<path d="M1145 1960 c4 -6 2 -17 -4 -24 -6 -7 -8 -29 -4 -52 l7 -39 11 50 c12
52 10 75 -7 75 -5 0 -6 -5 -3 -10z"/>
<path d="M2037 1905 c3 -33 7 -62 9 -64 7 -8 2 63 -7 94 -5 20 -6 9 -2 -30z"/>
<path d="M1976 1905 c8 -37 14 -45 14 -19 0 10 -5 26 -10 34 -8 11 -9 7 -4
-15z"/>
<path d="M1005 1899 c-4 -6 -5 -12 -2 -15 2 -3 7 2 10 11 7 17 1 20 -8 4z"/>
<path d="M1042 1890 c0 -14 2 -19 5 -12 2 6 2 18 0 25 -3 6 -5 1 -5 -13z"/>
<path d="M1850 1907 c0 -13 53 -148 56 -144 3 2 -7 35 -22 73 -24 65 -34 85
-34 71z"/>
<path d="M2231 1894 c0 -11 3 -14 6 -6 3 7 2 16 -1 19 -3 4 -6 -2 -5 -13z"/>
<path d="M721 1823 c-10 -65 -22 -270 -13 -245 2 7 10 12 18 12 10 0 11 6 4
26 -13 34 -13 151 1 214 6 28 9 54 6 56 -3 3 -10 -25 -16 -63z"/>
<path d="M972 1845 c-17 -37 -14 -45 4 -12 9 16 14 31 11 33 -2 2 -9 -7 -15
-21z"/>
<path d="M2247 1820 c3 -30 7 -57 9 -59 7 -8 2 64 -6 89 -6 16 -7 6 -3 -30z"/>
<path d="M612 1833 c-50 -72 -74 -135 -70 -187 3 -28 8 -59 12 -68 6 -13 4
-18 -7 -18 -26 0 -42 32 -48 99 l-6 66 -1 -62 c-2 -52 2 -66 21 -89 27 -31 66
-28 51 4 -18 41 -16 109 6 160 22 51 63 101 46 57 -4 -12 -4 -16 2 -10 10 10
25 75 17 75 -2 0 -12 -12 -23 -27z"/>
<path d="M1030 1820 c-5 -42 -7 -45 -37 -48 -20 -2 -33 1 -33 8 0 6 -4 8 -10
5 -23 -14 -7 -25 36 -25 38 0 45 -3 42 -17 -2 -13 -16 -20 -46 -24 -38 -5 -42
-3 -42 15 0 19 -1 19 -13 -3 -31 -61 -50 -12 -27 68 5 19 8 36 7 37 -5 6 -90
-169 -97 -201 -4 -16 -11 -38 -15 -47 -5 -12 -3 -18 7 -18 9 0 14 12 15 34 2
60 43 108 43 50 0 -24 2 -25 33 -18 59 14 82 11 85 -12 2 -11 -4 -26 -12 -33
-19 -16 -2 -58 27 -67 21 -7 47 17 47 43 0 16 15 17 41 3 24 -13 24 -26 -1
-75 -27 -54 -25 -59 5 -10 20 31 25 54 25 103 0 34 4 62 10 62 16 0 12 50 -5
56 -17 7 -21 54 -4 54 8 0 8 4 -1 15 -9 11 -17 12 -30 5 -32 -17 -39 -11 -42
38 l-4 47 -4 -45z m60 -67 c-1 -19 -19 -35 -34 -30 -26 10 -19 37 9 37 14 0
25 -3 25 -7z m-229 -56 c-8 -8 -11 -5 -11 9 0 27 14 41 18 19 2 -9 -1 -22 -7
-28z"/>
<path d="M1141 1794 c0 -11 3 -14 6 -6 3 7 2 16 -1 19 -3 4 -6 -2 -5 -13z"/>
<path d="M509 1773 c-5 -14 -8 -30 -6 -36 1 -5 8 7 14 27 13 42 7 49 -8 9z"/>
<path d="M2051 1735 l-3 -70 -13 40 c-8 22 -14 35 -14 29 -1 -17 51 -268 56
-274 3 -3 2 11 -2 30 -4 19 -11 98 -15 175 -5 101 -7 120 -9 70z"/>
<path d="M2011 1764 c0 -11 3 -14 6 -6 3 7 2 16 -1 19 -3 4 -6 -2 -5 -13z"/>
<path d="M611 1719 c1 -30 5 -65 9 -79 4 -14 5 8 2 50 -6 89 -12 106 -11 29z"/>
<path d="M1152 1740 c0 -14 2 -19 5 -12 2 6 2 18 0 25 -3 6 -5 1 -5 -13z"/>
<path d="M1910 1741 c0 -6 4 -13 10 -16 6 -3 7 1 4 9 -7 18 -14 21 -14 7z"/>
<path d="M2263 1640 c0 -47 2 -66 4 -42 2 23 2 61 0 85 -2 23 -4 4 -4 -43z"/>
<path d="M1170 1675 c0 -5 5 -17 10 -25 5 -8 10 -10 10 -5 0 6 -5 17 -10 25
-5 8 -10 11 -10 5z"/>
<path d="M1278 1643 c6 -2 18 -2 25 0 6 3 1 5 -13 5 -14 0 -19 -2 -12 -5z"/>
<path d="M1843 1643 c9 -2 25 -2 35 0 9 3 1 5 -18 5 -19 0 -27 -2 -17 -5z"/>
<path d="M1213 1633 c9 -2 23 -2 30 0 6 3 -1 5 -18 5 -16 0 -22 -2 -12 -5z"/>
<path d="M631 1600 c0 -8 9 -35 20 -59 17 -38 18 -50 8 -73 -6 -16 -9 -31 -7
-34 6 -5 22 33 39 91 8 28 7 28 -6 11 -15 -20 -19 -16 -48 64 -5 13 -5 13 -6
0z"/>
<path d="M896 1593 c-11 -12 -5 -88 9 -113 17 -30 19 -24 4 19 -10 28 -9 35 9
54 21 22 21 23 3 34 -10 7 -22 9 -25 6z"/>
<path d="M758 1583 c7 -3 16 -2 19 1 4 3 -2 6 -13 5 -11 0 -14 -3 -6 -6z"/>
<path d="M1450 1532 c0 -55 15 -94 44 -114 25 -17 22 -6 -5 21 -34 35 -38 77
-10 108 19 20 19 21 -5 32 -24 11 -24 10 -24 -47z"/>
<path d="M805 1423 c-4 -76 -7 -161 -6 -189 1 -59 -38 -163 -103 -274 -69
-117 -76 -130 -87 -175 -8 -32 -17 -45 -29 -45 -15 0 -17 8 -13 63 l4 62 -21
-23 c-11 -13 -25 -42 -31 -64 -10 -39 -11 -39 -30 -22 -38 35 -16 101 77 231
90 125 135 215 140 281 l4 57 -14 -61 c-15 -64 -53 -150 -63 -140 -3 3 -7 27
-8 53 -2 26 -3 50 -4 52 0 2 -14 -14 -29 -35 -16 -21 -57 -64 -93 -94 -35 -30
-66 -58 -69 -61 -9 -12 -83 -59 -91 -59 -21 0 -5 19 61 73 66 54 144 146 176
210 23 43 11 32 -25 -23 -47 -72 -122 -152 -186 -195 -57 -39 -65 -54 -41 -74
18 -15 107 45 209 142 l77 74 0 -57 c0 -50 -5 -64 -35 -106 -20 -27 -38 -57
-41 -66 -4 -10 -10 -18 -14 -18 -8 0 -70 -131 -70 -149 0 -7 14 -30 31 -52 29
-37 29 -39 14 -63 -19 -29 -24 -83 -12 -138 7 -35 6 -37 -23 -43 -100 -22
-152 -146 -95 -229 14 -21 23 -41 20 -46 -3 -4 4 -6 14 -3 11 3 28 -4 40 -16
11 -11 23 -16 26 -11 4 6 17 10 31 10 57 0 128 63 140 125 4 21 0 52 -9 80
-15 43 -15 45 4 45 11 0 36 7 56 15 43 18 53 12 33 -18 -35 -54 -80 -153 -85
-186 l-4 -36 10 38 c20 68 89 115 175 118 l29 1 -30 7 c-38 8 -53 54 -36 111
9 30 22 45 55 65 54 31 91 32 165 1 32 -14 80 -27 107 -29 27 -3 39 -2 27 0
-13 2 -23 8 -23 13 0 12 97 33 123 27 55 -13 221 -84 225 -96 3 -10 -2 -12
-19 -7 -56 14 -72 16 -39 3 70 -28 80 -30 74 -13 -9 24 13 20 84 -14 65 -31
126 -70 176 -113 26 -23 28 -29 23 -69 -3 -24 -9 -53 -12 -63 -6 -16 -5 -17 4
-5 5 8 13 32 16 52 4 21 10 38 14 38 17 0 31 -27 32 -59 0 -34 1 -34 10 -12
10 25 10 24 65 -30 30 -30 81 -84 112 -121 l56 -68 58 0 c32 0 58 3 58 8 0 4
-23 39 -50 77 -106 147 -117 168 -122 226 -3 35 -13 70 -28 94 -21 34 -24 51
-24 139 -1 87 -4 106 -23 136 -51 79 -51 80 -13 111 42 36 48 36 48 3 0 -35
30 -74 80 -100 23 -12 47 -24 53 -26 7 -2 6 -17 -2 -48 -10 -40 -9 -50 10 -90
28 -58 59 -80 125 -87 l54 -6 6 -44 c8 -60 37 -98 92 -119 40 -15 52 -16 96
-4 42 10 52 10 60 -1 8 -11 9 -10 4 3 -3 10 5 33 17 53 18 29 26 34 47 29 25
-5 25 -5 4 10 -15 10 -23 30 -27 62 -9 81 -72 136 -152 132 l-40 -3 -7 54 c-7
59 -43 107 -88 118 -41 9 -50 21 -39 49 15 41 11 73 -18 126 -24 45 -26 51
-11 62 18 13 58 76 58 91 0 6 -10 -8 -23 -30 -32 -57 -141 -136 -123 -89 3 9
9 41 12 72 3 32 12 79 20 106 18 63 17 107 -1 51 -14 -43 -16 -40 -33 35 l-11
45 7 -50 c12 -88 4 -226 -17 -293 -20 -65 -81 -152 -106 -152 -24 0 -35 33
-19 55 8 10 14 15 14 9 0 -5 7 4 15 20 17 33 20 48 4 26 -8 -12 -9 -11 -5 5
18 74 17 289 -2 271 -3 -3 -6 -41 -7 -83 -1 -60 -8 -91 -27 -134 -24 -53 -91
-139 -108 -139 -19 0 -18 35 1 66 32 52 59 150 65 239 5 62 0 116 -20 235 -14
85 -31 169 -36 185 -10 30 -10 30 -5 -5 3 -19 15 -88 26 -154 24 -143 21 -170
-11 -97 -13 30 -25 50 -27 44 -2 -6 5 -31 16 -55 44 -97 51 -120 40 -134 -15
-18 -82 -27 -123 -16 -33 9 -42 7 -93 -24 -45 -27 -65 -33 -88 -29 l-30 6 29
-16 c20 -11 33 -12 40 -5 31 31 71 -4 80 -71 12 -84 -60 -169 -144 -169 -10 0
-23 -6 -27 -14 -15 -25 -50 -35 -144 -42 -52 -3 -101 -6 -109 -6 -167 3 -210
5 -210 12 0 4 -13 13 -30 19 -16 5 -30 14 -30 19 0 5 -11 14 -25 20 -25 12
-42 52 -31 74 3 7 15 27 26 43 11 17 24 40 30 53 5 12 15 22 22 23 7 0 -6 9
-29 19 -51 23 -139 87 -172 126 -50 58 -52 66 -45 257 4 97 5 177 2 177 -3 0
-9 -62 -13 -137z m59 -319 l36 -41 -20 -59 c-22 -67 -24 -84 -10 -84 6 0 10 6
10 13 0 23 30 117 38 117 4 0 13 -4 21 -9 12 -8 10 -16 -12 -50 -29 -44 -32
-51 -18 -51 5 0 14 13 21 30 19 46 34 54 69 35 38 -19 38 -36 2 -95 -32 -53
-54 -59 -110 -31 -22 12 -50 21 -62 21 -24 0 -89 60 -89 83 0 9 9 37 21 64 11
26 27 63 35 82 8 20 18 31 23 25 4 -5 25 -28 45 -50z m1013 -30 c39 5 43 4 43
-16 0 -40 -49 -184 -69 -202 -14 -13 -28 -16 -50 -11 -36 8 -49 22 -49 55 0
46 -20 114 -36 126 -22 16 -21 19 15 42 26 16 38 18 67 10 20 -6 56 -7 79 -4z
m-1151 -165 c8 -14 -11 -33 -25 -25 -11 7 -4 36 9 36 5 0 12 -5 16 -11z m1265
-32 c-8 -8 -11 -7 -11 4 0 20 13 34 18 19 3 -7 -1 -17 -7 -23z m195 11 c8 -12
-24 -40 -37 -32 -5 3 -9 14 -9 25 0 21 34 27 46 7z m-356 -74 c0 -8 -2 -14 -4
-14 -7 0 -76 41 -76 45 0 2 18 -2 40 -7 22 -6 40 -16 40 -24z m-860 20 c0 -8
-32 -33 -42 -34 -5 0 -8 9 -8 20 0 15 7 20 25 20 14 0 25 -3 25 -6z m-429
-107 c-8 -8 -11 -4 -11 14 0 33 14 47 18 19 2 -12 -1 -27 -7 -33z m94 33 c3
-5 1 -10 -4 -10 -6 0 -11 5 -11 10 0 6 2 10 4 10 3 0 8 -4 11 -10z m169 -92
c-4 -13 -11 -34 -17 -48 -10 -25 -10 -24 -22 15 -10 35 -10 41 4 47 32 13 43
9 35 -14z m-219 -9 c0 -7 -8 -15 -17 -17 -18 -3 -25 18 -11 32 10 10 28 1 28
-15z m1703 -32 c4 -20 -25 -34 -40 -19 -15 15 -1 44 19 40 10 -2 19 -11 21
-21z m190 -186 c4 -29 -15 -43 -40 -30 -21 11 -23 30 -6 47 19 19 43 10 46
-17z m-2015 -25 c7 -17 -18 -40 -33 -31 -5 3 -10 15 -10 26 0 23 35 27 43 5z"/>
<path d="M1798 955 c14 -29 51 -60 59 -51 5 4 0 12 -10 17 -9 6 -27 20 -38 32
-20 20 -21 20 -11 2z"/>
<path d="M1782 1530 c0 -14 2 -19 5 -12 2 6 2 18 0 25 -3 6 -5 1 -5 -13z"/>
<path d="M2254 1435 c0 -49 1 -71 3 -48 2 23 2 64 0 90 -2 26 -3 8 -3 -42z"/>
<path d="M2086 1410 c2 -25 11 -70 19 -100 14 -54 14 -54 9 -10 -2 25 -11 70
-19 100 -14 54 -14 54 -9 10z"/>
<path d="M973 1423 c9 -2 23 -2 30 0 6 3 -1 5 -18 5 -16 0 -22 -2 -12 -5z"/>
<path d="M1616 1423 c-3 -4 -25 -10 -49 -14 l-42 -6 36 -2 c19 0 44 6 55 14
10 8 16 15 13 15 -3 0 -9 -3 -13 -7z"/>
<path d="M636 1405 c-9 -26 -7 -32 5 -12 6 10 9 21 6 23 -2 3 -7 -2 -11 -11z"/>
<path d="M615 1359 c-4 -6 -5 -12 -2 -15 2 -3 7 2 10 11 7 17 1 20 -8 4z"/>
<path d="M2183 1280 c0 -41 2 -58 4 -37 2 20 2 54 0 75 -2 20 -4 3 -4 -38z"/>
<path d="M1846 1327 c3 -10 9 -15 12 -12 3 3 0 11 -7 18 -10 9 -11 8 -5 -6z"/>
<path d="M2242 1300 c-1 -27 6 -59 18 -80 22 -39 26 -36 8 7 -6 15 -14 48 -18
73 l-7 45 -1 -45z"/>
<path d="M1 903 c1 -180 5 -312 9 -293 4 19 23 127 44 240 20 113 41 225 47
248 13 60 6 75 -51 106 l-50 27 1 -328z"/>
<path d="M2286 1114 c-4 -20 -5 -38 -3 -40 3 -3 8 11 11 32 4 20 5 38 3 40 -3
3 -8 -11 -11 -32z"/>
<path d="M1499 1001 c-14 -10 -36 -21 -49 -24 l-25 -4 26 -2 c15 0 32 6 39 14
7 8 27 19 44 24 22 7 25 9 10 10 -12 1 -32 -8 -45 -18z"/>
<path d="M1374 958 c9 -5 23 -5 32 0 12 6 7 9 -16 9 -23 0 -28 -3 -16 -9z"/>
<path d="M1138 953 c7 -3 16 -2 19 1 4 3 -2 6 -13 5 -11 0 -14 -3 -6 -6z"/>
<path d="M1325 950 c-3 -5 -32 -10 -63 -11 -40 0 -51 -3 -37 -9 11 -4 33 -5
49 -2 21 4 27 2 22 -6 -4 -7 -16 -12 -27 -12 -10 0 -19 -4 -19 -10 0 -13 3
-13 34 2 22 9 65 58 52 58 -3 0 -8 -4 -11 -10z"/>
<path d="M1178 943 c7 -3 16 -2 19 1 4 3 -2 6 -13 5 -11 0 -14 -3 -6 -6z"/>
<path d="M1178 523 c7 -3 16 -2 19 1 4 3 -2 6 -13 5 -11 0 -14 -3 -6 -6z"/>
<path d="M1228 513 c7 -3 16 -2 19 1 4 3 -2 6 -13 5 -11 0 -14 -3 -6 -6z"/>
<path d="M1323 493 c9 -2 23 -2 30 0 6 3 -1 5 -18 5 -16 0 -22 -2 -12 -5z"/>
<path d="M885 355 c22 -13 45 -24 50 -24 6 0 -8 11 -30 24 -22 14 -44 25 -50
25 -5 0 8 -11 30 -25z"/>
<path d="M2668 333 c7 -3 16 -2 19 1 4 3 -2 6 -13 5 -11 0 -14 -3 -6 -6z"/>
<path d="M1070 247 c0 -3 12 -12 26 -22 15 -9 23 -12 20 -6 -7 11 -46 35 -46
28z"/>
<path d="M2565 230 c10 -11 20 -20 23 -20 3 0 -3 9 -13 20 -10 11 -20 20 -23
20 -3 0 3 -9 13 -20z"/>
<path d="M621 193 c0 -17 -14 -68 -31 -112 -16 -45 -26 -81 -21 -81 4 0 16 27
26 60 10 33 19 60 21 60 2 0 14 -11 28 -25 16 -16 36 -25 53 -24 25 1 24 2 -9
11 -39 10 -52 34 -61 113 l-4 30 -2 -32z"/>
<path d="M1158 188 c17 -9 31 -28 20 -28 -2 0 -30 -11 -63 -25 -33 -13 -53
-25 -45 -24 8 0 43 12 77 27 l62 28 -28 17 c-16 9 -33 17 -38 16 -4 0 2 -5 15
-11z"/>
<path d="M1796 164 c-4 -14 -5 -28 -3 -31 3 -2 8 8 11 23 4 14 5 28 3 31 -3 2
-8 -8 -11 -23z"/>
<path d="M309 154 c-23 -25 -23 -26 -2 -13 13 7 25 19 27 26 8 19 2 16 -25
-13z"/>
<path d="M1718 138 c-10 -23 -16 -44 -13 -46 6 -6 37 67 33 78 -2 5 -11 -9
-20 -32z"/>
<path d="M389 74 c-17 -36 -28 -68 -26 -70 2 -2 17 28 34 66 17 39 29 70 27
70 -3 0 -19 -30 -35 -66z"/>
<path d="M235 82 c-11 -10 -33 -34 -50 -53 -16 -19 -6 -12 23 16 47 44 57 56
50 55 -2 -1 -12 -9 -23 -18z"/>
<path d="M940 84 l-55 -13 49 5 c27 3 58 9 70 14 31 13 -1 10 -64 -6z"/>
<path d="M1368 93 c6 -2 18 -2 25 0 6 3 1 5 -13 5 -14 0 -19 -2 -12 -5z"/>
<path d="M1473 83 c15 -2 37 -2 50 0 12 2 0 4 -28 4 -27 0 -38 -2 -22 -4z"/>
<path d="M1670 80 c-9 -6 -10 -10 -3 -10 6 0 15 5 18 10 8 12 4 12 -15 0z"/>
<path d="M742 58 c0 -7 -3 -24 -6 -38 -5 -21 -4 -20 8 5 11 25 22 31 57 36
l44 6 -51 1 c-34 2 -51 -2 -52 -10z"/>
<path d="M1603 63 c9 -2 25 -2 35 0 9 3 1 5 -18 5 -19 0 -27 -2 -17 -5z"/>
<path d="M1730 8 c0 -4 7 -8 15 -8 8 0 15 4 15 8 0 5 -7 9 -15 9 -8 0 -15 -4
-15 -9z"/>
</g>
</svg>
